<svg xmlns="http://www.w3.org/2000/svg" width="1280" height="400" viewBox="0 0 1280 400" role="img" aria-label="cometcli — detect, diagnose, fix: an agentic SRE terminal for Cosmos validators"><title>cometcli — detect, diagnose, fix: an agentic SRE terminal for Cosmos validators</title><defs><linearGradient id="bg" x1="0" y1="0" x2="1" y2="1"><stop offset="0" stop-color="#0b0e1c"/><stop offset="1" stop-color="#121733"/></linearGradient><linearGradient id="word" x1="72" y1="0" x2="560" y2="0" gradientUnits="userSpaceOnUse"><stop offset="0" stop-color="#fdd07a"/><stop offset="0.3" stop-color="#ec8a5c"/><stop offset="0.55" stop-color="#d8687c"/><stop offset="0.78" stop-color="#bf5fb4"/><stop offset="1" stop-color="#8f68e6"/></linearGradient><radialGradient id="head"><stop offset="0" stop-color="#fffbe8"/><stop offset=".3" stop-color="#ffd27a" stop-opacity=".9"/><stop offset="1" stop-color="#ec8a5c" stop-opacity="0"/></radialGradient></defs><rect width="1280" height="400" fill="url(#bg)"/><circle cx="949.5" cy="318.1" r="0.59" fill="#5d6491" opacity="0.87"/><circle cx="318.8" cy="20.7" r="0.82" fill="#5d6491" opacity="0.29"/><circle cx="315.6" cy="217.5" r="0.45" fill="#5d6491" opacity="0.21"/><circle cx="357.7" cy="366.5" r="0.36" fill="#7f86b8" opacity="0.33"/><circle cx="177.6" cy="247.0" r="0.86" fill="#5d6491" opacity="0.31"/><circle cx="6.8" cy="309.4" r="1.27" fill="#5d6491" opacity="0.90"/><circle cx="1230.7" cy="215.7" r="0.37" fill="#5d6491" opacity="0.35"/><circle cx="252.0" cy="386.0" r="1.26" fill="#7f86b8" opacity="0.44"/><circle cx="212.4" cy="58.3" r="0.40" fill="#5d6491" opacity="0.47"/><circle cx="750.3" cy="238.4" r="0.90" fill="#7f86b8" opacity="0.25"/><circle cx="391.8" cy="278.6" r="0.39" fill="#5d6491" opacity="0.58"/><circle cx="73.0" cy="390.0" r="0.70" fill="#5d6491" opacity="0.96"/><circle cx="517.5" cy="219.6" r="0.40" fill="#7f86b8" opacity="0.49"/><circle cx="11.6" cy="18.7" r="0.54" fill="#5d6491" opacity="0.70"/><circle cx="152.3" cy="98.4" r="1.22" fill="#7f86b8" opacity="0.48"/><circle cx="671.6" cy="310.2" r="0.39" fill="#5d6491" opacity="0.67"/><circle cx="470.1" cy="118.3" r="0.83" fill="#7f86b8" opacity="0.96"/><circle cx="436.1" cy="244.3" r="0.35" fill="#5d6491" opacity="0.47"/><circle cx="697.8" cy="125.0" r="1.14" fill="#7f86b8" opacity="0.44"/><circle cx="802.3" cy="288.5" r="0.86" fill="#7f86b8" opacity="1.00"/><circle cx="62.1" cy="394.7" r="0.35" fill="#7f86b8" opacity="0.23"/><circle cx="440.1" cy="100.1" r="0.76" fill="#7f86b8" opacity="0.32"/><circle cx="817.1" cy="320.7" r="1.29" fill="#7f86b8" opacity="0.87"/><circle cx="936.5" cy="379.9" r="0.35" fill="#7f86b8" opacity="0.29"/><circle cx="191.0" cy="337.9" r="0.43" fill="#7f86b8" opacity="0.31"/><circle cx="794.1" cy="67.7" r="1.13" fill="#7f86b8" opacity="0.97"/><circle cx="406.7" cy="109.6" r="0.68" fill="#7f86b8" opacity="0.52"/><circle cx="482.6" cy="395.4" r="0.35" fill="#5d6491" opacity="0.70"/><circle cx="433.3" cy="35.7" r="0.47" fill="#7f86b8" opacity="0.61"/><circle cx="643.6" cy="25.2" r="0.51" fill="#7f86b8" opacity="0.76"/><circle cx="972.3" cy="145.4" r="0.64" fill="#7f86b8" opacity="0.87"/><circle cx="1255.6" cy="286.4" r="0.37" fill="#7f86b8" opacity="0.72"/><circle cx="14.8" cy="218.8" r="0.55" fill="#7f86b8" opacity="0.46"/><circle cx="369.7" cy="200.1" r="0.37" fill="#7f86b8" opacity="0.48"/><circle cx="944.4" cy="331.3" r="0.62" fill="#7f86b8" opacity="0.94"/><circle cx="1109.7" cy="179.9" r="0.36" fill="#7f86b8" opacity="0.97"/><circle cx="677.6" cy="66.5" r="0.49" fill="#7f86b8" opacity="0.95"/><circle cx="885.0" cy="287.9" r="0.46" fill="#7f86b8" opacity="0.34"/><circle cx="743.5" cy="266.2" r="0.83" fill="#7f86b8" opacity="0.44"/><circle cx="1109.9" cy="108.3" r="0.52" fill="#5d6491" opacity="0.36"/><circle cx="798.8" cy="72.3" r="0.55" fill="#5d6491" opacity="0.70"/><circle cx="603.6" cy="90.5" r="0.35" fill="#5d6491" opacity="0.91"/><circle cx="1239.0" cy="193.1" r="0.35" fill="#5d6491" opacity="0.53"/><circle cx="848.0" cy="28.8" r="0.39" fill="#5d6491" opacity="0.39"/><circle cx="0.8" cy="162.2" r="1.09" fill="#7f86b8" opacity="0.88"/><circle cx="881.7" cy="218.9" r="1.00" fill="#5d6491" opacity="0.64"/><circle cx="378.0" cy="205.1" r="0.38" fill="#7f86b8" opacity="0.97"/><circle cx="536.5" cy="325.2" r="0.90" fill="#7f86b8" opacity="0.57"/><circle cx="489.9" cy="190.8" r="0.35" fill="#5d6491" opacity="0.97"/><circle cx="449.4" cy="357.4" r="0.58" fill="#5d6491" opacity="0.51"/><circle cx="1173.1" cy="215.8" r="0.38" fill="#7f86b8" opacity="0.70"/><circle cx="481.1" cy="172.7" r="1.06" fill="#5d6491" opacity="0.59"/><circle cx="906.6" cy="153.6" r="0.46" fill="#5d6491" opacity="0.68"/><circle cx="1255.7" cy="198.5" r="0.37" fill="#7f86b8" opacity="0.22"/><circle cx="393.6" cy="371.8" r="1.19" fill="#5d6491" opacity="0.58"/><circle cx="795.8" cy="177.4" r="0.35" fill="#7f86b8" opacity="0.23"/><circle cx="502.3" cy="192.1" r="0.35" fill="#7f86b8" opacity="0.39"/><circle cx="47.1" cy="196.0" r="0.46" fill="#5d6491" opacity="0.78"/><circle cx="630.1" cy="397.0" r="0.37" fill="#5d6491" opacity="0.21"/><circle cx="361.4" cy="283.2" r="0.35" fill="#7f86b8" opacity="0.79"/><circle cx="447.7" cy="272.7" r="0.35" fill="#5d6491" opacity="0.23"/><circle cx="583.2" cy="366.6" r="0.37" fill="#5d6491" opacity="0.21"/><circle cx="547.5" cy="230.3" r="0.82" fill="#7f86b8" opacity="0.89"/><circle cx="608.9" cy="272.9" r="0.95" fill="#5d6491" opacity="0.92"/><circle cx="970.5" cy="121.5" r="0.45" fill="#5d6491" opacity="0.76"/><circle cx="366.5" cy="312.3" r="0.43" fill="#7f86b8" opacity="0.31"/><circle cx="702.8" cy="199.1" r="0.46" fill="#7f86b8" opacity="0.63"/><circle cx="693.0" cy="19.4" r="0.43" fill="#5d6491" opacity="0.41"/><circle cx="80.5" cy="376.9" r="0.35" fill="#7f86b8" opacity="0.78"/><circle cx="1277.9" cy="280.5" r="1.29" fill="#5d6491" opacity="0.30"/><circle cx="786.6" cy="329.7" r="0.35" fill="#5d6491" opacity="0.77"/><circle cx="374.4" cy="367.2" r="0.35" fill="#5d6491" opacity="0.35"/><circle cx="1026.6" cy="26.9" r="0.36" fill="#5d6491" opacity="0.23"/><circle cx="485.4" cy="28.8" r="0.35" fill="#5d6491" opacity="0.66"/><circle cx="510.1" cy="249.5" r="0.35" fill="#5d6491" opacity="0.55"/><circle cx="768.3" cy="195.8" r="0.38" fill="#7f86b8" opacity="0.93"/><circle cx="377.2" cy="227.5" r="0.35" fill="#7f86b8" opacity="0.93"/><circle cx="794.7" cy="105.3" r="0.52" fill="#5d6491" opacity="0.40"/><circle cx="661.8" cy="53.5" r="0.77" fill="#5d6491" opacity="0.89"/><circle cx="497.8" cy="52.5" r="0.44" fill="#5d6491" opacity="0.72"/><g stroke="#1d2346" stroke-width="1"><path d="M0 0V400"/><path d="M40 0V400"/><path d="M80 0V400"/><path d="M120 0V400"/><path d="M160 0V400"/><path d="M200 0V400"/><path d="M240 0V400"/><path d="M280 0V400"/><path d="M320 0V400"/><path d="M360 0V400"/><path d="M400 0V400"/><path d="M440 0V400"/><path d="M480 0V400"/><path d="M520 0V400"/><path d="M560 0V400"/><path d="M600 0V400"/><path d="M640 0V400"/><path d="M680 0V400"/><path d="M720 0V400"/><path d="M760 0V400"/><path d="M800 0V400"/><path d="M840 0V400"/><path d="M880 0V400"/><path d="M920 0V400"/><path d="M960 0V400"/><path d="M1000 0V400"/><path d="M1040 0V400"/><path d="M1080 0V400"/><path d="M1120 0V400"/><path d="M1160 0V400"/><path d="M1200 0V400"/><path d="M1240 0V400"/><path d="M0 0H1280"/><path d="M0 40H1280"/><path d="M0 80H1280"/><path d="M0 120H1280"/><path d="M0 160H1280"/><path d="M0 200H1280"/><path d="M0 240H1280"/><path d="M0 280H1280"/><path d="M0 320H1280"/><path d="M0 360H1280"/></g><g transform="translate(72 64)"><g fill="none" stroke="url(#word)" stroke-width="1.4" opacity=".55"><rect x="15.4" y="3.4" width="12.0" height="12.0"/><rect x="27.4" y="3.4" width="12.0" height="12.0"/><rect x="39.4" y="3.4" width="12.0" height="12.0"/><rect x="51.4" y="3.4" width="12.0" height="12.0"/><rect x="3.4" y="15.4" width="12.0" height="12.0"/><rect x="3.4" y="27.4" width="12.0" height="12.0"/><rect x="3.4" y="39.4" width="12.0" height="12.0"/><rect x="15.4" y="51.4" width="12.0" height="12.0"/><rect x="27.4" y="51.4" width="12.0" height="12.0"/><rect x="39.4" y="51.4" width="12.0" height="12.0"/><rect x="51.4" y="51.4" width="12.0" height="12.0"/><rect x="87.4" y="3.4" width="12.0" height="12.0"/><rect x="99.4" y="3.4" width="12.0" height="12.0"/><rect x="111.4" y="3.4" width="12.0" height="12.0"/><rect x="75.4" y="15.4" width="12.0" height="12.0"/><rect x="123.4" y="15.4" width="12.0" height="12.0"/><rect x="75.4" y="27.4" width="12.0" height="12.0"/><rect x="123.4" y="27.4" width="12.0" height="12.0"/><rect x="75.4" y="39.4" width="12.0" height="12.0"/><rect x="123.4" y="39.4" width="12.0" height="12.0"/><rect x="87.4" y="51.4" width="12.0" height="12.0"/><rect x="99.4" y="51.4" width="12.0" height="12.0"/><rect x="111.4" y="51.4" width="12.0" height="12.0"/><rect x="147.4" y="3.4" width="12.0" height="12.0"/><rect x="195.4" y="3.4" width="12.0" height="12.0"/><rect x="147.4" y="15.4" width="12.0" height="12.0"/><rect x="159.4" y="15.4" width="12.0" height="12.0"/><rect x="183.4" y="15.4" width="12.0" height="12.0"/><rect x="195.4" y="15.4" width="12.0" height="12.0"/><rect x="147.4" y="27.4" width="12.0" height="12.0"/><rect x="171.4" y="27.4" width="12.0" height="12.0"/><rect x="195.4" y="27.4" width="12.0" height="12.0"/><rect x="147.4" y="39.4" width="12.0" height="12.0"/><rect x="195.4" y="39.4" width="12.0" height="12.0"/><rect x="147.4" y="51.4" width="12.0" height="12.0"/><rect x="195.4" y="51.4" width="12.0" height="12.0"/><rect x="219.4" y="3.4" width="12.0" height="12.0"/><rect x="231.4" y="3.4" width="12.0" height="12.0"/><rect x="243.4" y="3.4" width="12.0" height="12.0"/><rect x="255.4" y="3.4" width="12.0" height="12.0"/><rect x="267.4" y="3.4" width="12.0" height="12.0"/><rect x="219.4" y="15.4" width="12.0" height="12.0"/><rect x="219.4" y="27.4" width="12.0" height="12.0"/><rect x="231.4" y="27.4" width="12.0" height="12.0"/><rect x="243.4" y="27.4" width="12.0" height="12.0"/><rect x="255.4" y="27.4" width="12.0" height="12.0"/><rect x="219.4" y="39.4" width="12.0" height="12.0"/><rect x="219.4" y="51.4" width="12.0" height="12.0"/><rect x="231.4" y="51.4" width="12.0" height="12.0"/><rect x="243.4" y="51.4" width="12.0" height="12.0"/><rect x="255.4" y="51.4" width="12.0" height="12.0"/><rect x="267.4" y="51.4" width="12.0" height="12.0"/><rect x="291.4" y="3.4" width="12.0" height="12.0"/><rect x="303.4" y="3.4" width="12.0" height="12.0"/><rect x="315.4" y="3.4" width="12.0" height="12.0"/><rect x="327.4" y="3.4" width="12.0" height="12.0"/><rect x="339.4" y="3.4" width="12.0" height="12.0"/><rect x="315.4" y="15.4" width="12.0" height="12.0"/><rect x="315.4" y="27.4" width="12.0" height="12.0"/><rect x="315.4" y="39.4" width="12.0" height="12.0"/><rect x="315.4" y="51.4" width="12.0" height="12.0"/><rect x="375.4" y="3.4" width="12.0" height="12.0"/><rect x="387.4" y="3.4" width="12.0" height="12.0"/><rect x="399.4" y="3.4" width="12.0" height="12.0"/><rect x="411.4" y="3.4" width="12.0" height="12.0"/><rect x="363.4" y="15.4" width="12.0" height="12.0"/><rect x="363.4" y="27.4" width="12.0" height="12.0"/><rect x="363.4" y="39.4" width="12.0" height="12.0"/><rect x="375.4" y="51.4" width="12.0" height="12.0"/><rect x="387.4" y="51.4" width="12.0" height="12.0"/><rect x="399.4" y="51.4" width="12.0" height="12.0"/><rect x="411.4" y="51.4" width="12.0" height="12.0"/><rect x="435.4" y="3.4" width="12.0" height="12.0"/><rect x="435.4" y="15.4" width="12.0" height="12.0"/><rect x="435.4" y="27.4" width="12.0" height="12.0"/><rect x="435.4" y="39.4" width="12.0" height="12.0"/><rect x="435.4" y="51.4" width="12.0" height="12.0"/><rect x="447.4" y="51.4" width="12.0" height="12.0"/><rect x="459.4" y="51.4" width="12.0" height="12.0"/><rect x="471.4" y="51.4" width="12.0" height="12.0"/><rect x="483.4" y="51.4" width="12.0" height="12.0"/><rect x="507.4" y="3.4" width="12.0" height="12.0"/><rect x="519.4" y="3.4" width="12.0" height="12.0"/><rect x="531.4" y="3.4" width="12.0" height="12.0"/><rect x="519.4" y="15.4" width="12.0" height="12.0"/><rect x="519.4" y="27.4" width="12.0" height="12.0"/><rect x="519.4" y="39.4" width="12.0" height="12.0"/><rect x="507.4" y="51.4" width="12.0" height="12.0"/><rect x="519.4" y="51.4" width="12.0" height="12.0"/><rect x="531.4" y="51.4" width="12.0" height="12.0"/></g><g fill="url(#word)"><rect x="12.4" y="0.4" width="11.3" height="11.3" rx="1.5"/><rect x="24.4" y="0.4" width="11.3" height="11.3" rx="1.5"/><rect x="36.4" y="0.4" width="11.3" height="11.3" rx="1.5"/><rect x="48.4" y="0.4" width="11.3" height="11.3" rx="1.5"/><rect x="0.4" y="12.4" width="11.3" height="11.3" rx="1.5"/><rect x="0.4" y="24.4" width="11.3" height="11.3" rx="1.5"/><rect x="0.4" y="36.4" width="11.3" height="11.3" rx="1.5"/><rect x="12.4" y="48.4" width="11.3" height="11.3" rx="1.5"/><rect x="24.4" y="48.4" width="11.3" height="11.3" rx="1.5"/><rect x="36.4" y="48.4" width="11.3" height="11.3" rx="1.5"/><rect x="48.4" y="48.4" width="11.3" height="11.3" rx="1.5"/><rect x="84.4" y="0.4" width="11.3" height="11.3" rx="1.5"/><rect x="96.4" y="0.4" width="11.3" height="11.3" rx="1.5"/><rect x="108.4" y="0.4" width="11.3" height="11.3" rx="1.5"/><rect x="72.4" y="12.4" width="11.3" height="11.3" rx="1.5"/><rect x="120.4" y="12.4" width="11.3" height="11.3" rx="1.5"/><rect x="72.4" y="24.4" width="11.3" height="11.3" rx="1.5"/><rect x="120.4" y="24.4" width="11.3" height="11.3" rx="1.5"/><rect x="72.4" y="36.4" width="11.3" height="11.3" rx="1.5"/><rect x="120.4" y="36.4" width="11.3" height="11.3" rx="1.5"/><rect x="84.4" y="48.4" width="11.3" height="11.3" rx="1.5"/><rect x="96.4" y="48.4" width="11.3" height="11.3" rx="1.5"/><rect x="108.4" y="48.4" width="11.3" height="11.3" rx="1.5"/><rect x="144.4" y="0.4" width="11.3" height="11.3" rx="1.5"/><rect x="192.4" y="0.4" width="11.3" height="11.3" rx="1.5"/><rect x="144.4" y="12.4" width="11.3" height="11.3" rx="1.5"/><rect x="156.4" y="12.4" width="11.3" height="11.3" rx="1.5"/><rect x="180.4" y="12.4" width="11.3" height="11.3" rx="1.5"/><rect x="192.4" y="12.4" width="11.3" height="11.3" rx="1.5"/><rect x="144.4" y="24.4" width="11.3" height="11.3" rx="1.5"/><rect x="168.4" y="24.4" width="11.3" height="11.3" rx="1.5"/><rect x="192.4" y="24.4" width="11.3" height="11.3" rx="1.5"/><rect x="144.4" y="36.4" width="11.3" height="11.3" rx="1.5"/><rect x="192.4" y="36.4" width="11.3" height="11.3" rx="1.5"/><rect x="144.4" y="48.4" width="11.3" height="11.3" rx="1.5"/><rect x="192.4" y="48.4" width="11.3" height="11.3" rx="1.5"/><rect x="216.4" y="0.4" width="11.3" height="11.3" rx="1.5"/><rect x="228.4" y="0.4" width="11.3" height="11.3" rx="1.5"/><rect x="240.4" y="0.4" width="11.3" height="11.3" rx="1.5"/><rect x="252.4" y="0.4" width="11.3" height="11.3" rx="1.5"/><rect x="264.4" y="0.4" width="11.3" height="11.3" rx="1.5"/><rect x="216.4" y="12.4" width="11.3" height="11.3" rx="1.5"/><rect x="216.4" y="24.4" width="11.3" height="11.3" rx="1.5"/><rect x="228.4" y="24.4" width="11.3" height="11.3" rx="1.5"/><rect x="240.4" y="24.4" width="11.3" height="11.3" rx="1.5"/><rect x="252.4" y="24.4" width="11.3" height="11.3" rx="1.5"/><rect x="216.4" y="36.4" width="11.3" height="11.3" rx="1.5"/><rect x="216.4" y="48.4" width="11.3" height="11.3" rx="1.5"/><rect x="228.4" y="48.4" width="11.3" height="11.3" rx="1.5"/><rect x="240.4" y="48.4" width="11.3" height="11.3" rx="1.5"/><rect x="252.4" y="48.4" width="11.3" height="11.3" rx="1.5"/><rect x="264.4" y="48.4" width="11.3" height="11.3" rx="1.5"/><rect x="288.4" y="0.4" width="11.3" height="11.3" rx="1.5"/><rect x="300.4" y="0.4" width="11.3" height="11.3" rx="1.5"/><rect x="312.4" y="0.4" width="11.3" height="11.3" rx="1.5"/><rect x="324.4" y="0.4" width="11.3" height="11.3" rx="1.5"/><rect x="336.4" y="0.4" width="11.3" height="11.3" rx="1.5"/><rect x="312.4" y="12.4" width="11.3" height="11.3" rx="1.5"/><rect x="312.4" y="24.4" width="11.3" height="11.3" rx="1.5"/><rect x="312.4" y="36.4" width="11.3" height="11.3" rx="1.5"/><rect x="312.4" y="48.4" width="11.3" height="11.3" rx="1.5"/><rect x="372.4" y="0.4" width="11.3" height="11.3" rx="1.5"/><rect x="384.4" y="0.4" width="11.3" height="11.3" rx="1.5"/><rect x="396.4" y="0.4" width="11.3" height="11.3" rx="1.5"/><rect x="408.4" y="0.4" width="11.3" height="11.3" rx="1.5"/><rect x="360.4" y="12.4" width="11.3" height="11.3" rx="1.5"/><rect x="360.4" y="24.4" width="11.3" height="11.3" rx="1.5"/><rect x="360.4" y="36.4" width="11.3" height="11.3" rx="1.5"/><rect x="372.4" y="48.4" width="11.3" height="11.3" rx="1.5"/><rect x="384.4" y="48.4" width="11.3" height="11.3" rx="1.5"/><rect x="396.4" y="48.4" width="11.3" height="11.3" rx="1.5"/><rect x="408.4" y="48.4" width="11.3" height="11.3" rx="1.5"/><rect x="432.4" y="0.4" width="11.3" height="11.3" rx="1.5"/><rect x="432.4" y="12.4" width="11.3" height="11.3" rx="1.5"/><rect x="432.4" y="24.4" width="11.3" height="11.3" rx="1.5"/><rect x="432.4" y="36.4" width="11.3" height="11.3" rx="1.5"/><rect x="432.4" y="48.4" width="11.3" height="11.3" rx="1.5"/><rect x="444.4" y="48.4" width="11.3" height="11.3" rx="1.5"/><rect x="456.4" y="48.4" width="11.3" height="11.3" rx="1.5"/><rect x="468.4" y="48.4" width="11.3" height="11.3" rx="1.5"/><rect x="480.4" y="48.4" width="11.3" height="11.3" rx="1.5"/><rect x="504.4" y="0.4" width="11.3" height="11.3" rx="1.5"/><rect x="516.4" y="0.4" width="11.3" height="11.3" rx="1.5"/><rect x="528.4" y="0.4" width="11.3" height="11.3" rx="1.5"/><rect x="516.4" y="12.4" width="11.3" height="11.3" rx="1.5"/><rect x="516.4" y="24.4" width="11.3" height="11.3" rx="1.5"/><rect x="516.4" y="36.4" width="11.3" height="11.3" rx="1.5"/><rect x="504.4" y="48.4" width="11.3" height="11.3" rx="1.5"/><rect x="516.4" y="48.4" width="11.3" height="11.3" rx="1.5"/><rect x="528.4" y="48.4" width="11.3" height="11.3" rx="1.5"/></g></g><text x="72" y="164" font-family="'Avenir Next', 'Segoe UI', Inter, 'Helvetica Neue', Arial, sans-serif" font-size="24" fill="#e2e4f3">An agentic SRE terminal for Cosmos validators</text><text x="72" y="194" font-family="ui-monospace, 'SF Mono', SFMono-Regular, Menlo, Consolas, monospace" font-size="15" fill="#6f76a3">It checks instead of guessing — and waits for your approval.</text><rect x="70.0" y="290.0" width="12.0" height="12.0" rx="2.2" fill="#5b7bf0" fill-opacity="0.03" stroke="#5b7bf0" stroke-opacity="0.18" stroke-width="1.6"/><path d="M82.0 296 H114.6" stroke="#5b7bf0" stroke-opacity="0.12" stroke-width="2" stroke-dasharray="3 4"/><rect x="114.6" y="288.4" width="15.1" height="15.1" rx="2.7" fill="#5b7bf0" fill-opacity="0.04" stroke="#5b7bf0" stroke-opacity="0.21" stroke-width="1.6"/><path d="M129.7 296 H166.1" stroke="#5b7bf0" stroke-opacity="0.15" stroke-width="2" stroke-dasharray="3 4"/><rect x="166.1" y="286.9" width="18.2" height="18.2" rx="3.3" fill="#5b7bf0" fill-opacity="0.04" stroke="#5b7bf0" stroke-opacity="0.25" stroke-width="1.6"/><path d="M184.3 296 H224.4" stroke="#5b7bf0" stroke-opacity="0.18" stroke-width="2" stroke-dasharray="3 4"/><rect x="224.4" y="285.4" width="21.3" height="21.3" rx="3.8" fill="#5b7bf0" fill-opacity="0.05" stroke="#5b7bf0" stroke-opacity="0.30" stroke-width="1.6"/><path d="M245.7 296 H289.6" stroke="#5b7bf0" stroke-opacity="0.21" stroke-width="2" stroke-dasharray="3 4"/><rect x="289.6" y="283.8" width="24.4" height="24.4" rx="4.4" fill="#5b7bf0" fill-opacity="0.06" stroke="#5b7bf0" stroke-opacity="0.36" stroke-width="1.6"/><path d="M314.0 296 H361.6" stroke="#5b7bf0" stroke-opacity="0.25" stroke-width="2" stroke-dasharray="3 4"/><rect x="361.6" y="282.2" width="27.5" height="27.5" rx="5.0" fill="#5b7bf0" fill-opacity="0.08" stroke="#5b7bf0" stroke-opacity="0.42" stroke-width="1.6"/><path d="M389.1 296 H440.5" stroke="#5b7bf0" stroke-opacity="0.29" stroke-width="2" stroke-dasharray="3 4"/><rect x="440.5" y="280.7" width="30.6" height="30.6" rx="5.5" fill="#5b7bf0" fill-opacity="0.09" stroke="#5b7bf0" stroke-opacity="0.49" stroke-width="1.6"/><path d="M471.1 296 H526.2" stroke="#5b7bf0" stroke-opacity="0.34" stroke-width="2" stroke-dasharray="3 4"/><rect x="526.2" y="279.1" width="33.7" height="33.7" rx="6.1" fill="#5b7bf0" fill-opacity="0.10" stroke="#5b7bf0" stroke-opacity="0.57" stroke-width="1.6"/><text x="543.0" y="269.1" text-anchor="middle" font-family="ui-monospace, 'SF Mono', SFMono-Regular, Menlo, Consolas, monospace" font-size="12" fill="#5b7bf0" fill-opacity="0.67">#18,402,325</text><path d="M559.9 296 H618.8" stroke="#ff6b6b" stroke-opacity="0.39" stroke-width="2" stroke-dasharray="3 4"/><rect x="618.8" y="277.6" width="36.8" height="36.8" rx="6.6" fill="#ff6b6b" fill-opacity="0.12" stroke="#ff6b6b" stroke-opacity="0.64" stroke-width="1.6"/><text x="637.2" y="267.6" text-anchor="middle" font-family="ui-monospace, 'SF Mono', SFMono-Regular, Menlo, Consolas, monospace" font-size="12" fill="#ff6b6b" fill-opacity="0.74">missed</text><text x="637.2" y="302.0" text-anchor="middle" font-family="ui-monospace, 'SF Mono', SFMono-Regular, Menlo, Consolas, monospace" font-size="16" font-weight="700" fill="#ff6b6b">!</text><path d="M655.6 296 H718.2" stroke="#7ee2a8" stroke-opacity="0.44" stroke-width="2" stroke-dasharray="3 4"/><rect x="718.2" y="276.1" width="39.9" height="39.9" rx="7.2" fill="#7ee2a8" fill-opacity="0.13" stroke="#7ee2a8" stroke-opacity="0.73" stroke-width="1.6"/><text x="738.2" y="266.1" text-anchor="middle" font-family="ui-monospace, 'SF Mono', SFMono-Regular, Menlo, Consolas, monospace" font-size="12" fill="#7ee2a8" fill-opacity="0.83">#18,402,327</text><path d="M758.1 296 H824.5" stroke="#7ee2a8" stroke-opacity="0.49" stroke-width="2" stroke-dasharray="3 4"/><rect x="824.5" y="274.5" width="43.0" height="43.0" rx="7.7" fill="#7ee2a8" fill-opacity="0.15" stroke="#7ee2a8" stroke-opacity="0.82" stroke-width="1.6"/><text x="846.0" y="264.5" text-anchor="middle" font-family="ui-monospace, 'SF Mono', SFMono-Regular, Menlo, Consolas, monospace" font-size="12" fill="#7ee2a8" fill-opacity="0.92">#18,402,328</text><path d="M867.5 296 H937.6" stroke="#7ee2a8" stroke-opacity="0.54" stroke-width="2" stroke-dasharray="3 4"/><rect x="937.6" y="272.9" width="46.1" height="46.1" rx="8.3" fill="#7ee2a8" fill-opacity="0.16" stroke="#7ee2a8" stroke-opacity="0.91" stroke-width="1.6"/><text x="960.7" y="262.9" text-anchor="middle" font-family="ui-monospace, 'SF Mono', SFMono-Regular, Menlo, Consolas, monospace" font-size="12" fill="#7ee2a8" fill-opacity="1.00">#18,402,329</text><path d="M983.7 296 H1057.6" stroke="#7ee2a8" stroke-opacity="0.60" stroke-width="2" stroke-dasharray="3 4"/><rect x="1057.6" y="271.4" width="49.2" height="49.2" rx="8.9" fill="#7ee2a8" fill-opacity="0.18" stroke="#7ee2a8" stroke-opacity="1.00" stroke-width="1.6"/><text x="1082.2" y="261.4" text-anchor="middle" font-family="ui-monospace, 'SF Mono', SFMono-Regular, Menlo, Consolas, monospace" font-size="12" fill="#7ee2a8" fill-opacity="1.00">#18,402,330</text><path d="M1072.4 297 l6.9 6.9 l13.8 -14.8" fill="none" stroke="#7ee2a8" stroke-width="3" stroke-linecap="round" stroke-linejoin="round"/><circle cx="1184" cy="296" r="46" fill="url(#head)"/><circle cx="1184" cy="296" r="8" fill="#fffbe8"/><text x="72" y="372" font-family="ui-monospace, 'SF Mono', SFMono-Regular, Menlo, Consolas, monospace" font-size="14" fill="#5d6491">detect  →  diagnose  →  <tspan fill="#ec8a5c">approve</tspan>  →  fix  →  signing again</text></svg>
