<svg xmlns="http://www.w3.org/2000/svg" width="1280" height="400" viewBox="0 0 1280 400" role="img" aria-label="cometcli — ask, diagnose, fix: an agentic SRE terminal for Cosmos validators"><title>cometcli — ask, diagnose, fix: an agentic SRE terminal for Cosmos validators</title><defs><linearGradient id="bg" x1="0" y1="0" x2="1" y2="1"><stop offset="0" stop-color="#14121f"/><stop offset="1" stop-color="#1f1830"/></linearGradient><linearGradient id="word" x1="0" y1="0" x2="1" y2="0"><stop offset="0" stop-color="#fdd07a"/><stop offset="0.3" stop-color="#ec8a5c"/><stop offset="0.55" stop-color="#d8687c"/><stop offset="0.78" stop-color="#bf5fb4"/><stop offset="1" stop-color="#8f68e6"/></linearGradient><filter id="sh" x="-10%" y="-10%" width="120%" height="130%"><feDropShadow dx="0" dy="14" stdDeviation="18" flood-color="#000" flood-opacity=".55"/></filter></defs><rect width="1280" height="400" fill="url(#bg)"/><circle cx="530.8" cy="22.6" r="1.22" fill="#8a86c8" opacity="0.46"/><circle cx="453.0" cy="341.5" r="0.35" fill="#c9c4ff" opacity="0.67"/><circle cx="325.5" cy="63.4" r="0.57" fill="#c9c4ff" opacity="0.69"/><circle cx="481.7" cy="203.6" r="0.87" fill="#c9c4ff" opacity="0.61"/><circle cx="150.2" cy="14.4" r="0.44" fill="#8a86c8" opacity="0.46"/><circle cx="508.3" cy="169.4" r="1.16" fill="#8a86c8" opacity="0.63"/><circle cx="13.4" cy="130.1" r="0.36" fill="#8a86c8" opacity="0.58"/><circle cx="287.7" cy="224.0" r="0.40" fill="#c9c4ff" opacity="0.83"/><circle cx="507.7" cy="305.2" r="0.75" fill="#c9c4ff" opacity="0.46"/><circle cx="249.6" cy="382.0" r="0.98" fill="#c9c4ff" opacity="0.76"/><circle cx="297.0" cy="196.0" r="0.45" fill="#c9c4ff" opacity="0.58"/><circle cx="198.2" cy="353.1" r="0.92" fill="#c9c4ff" opacity="0.45"/><circle cx="312.2" cy="182.6" r="0.73" fill="#8a86c8" opacity="0.95"/><circle cx="467.6" cy="350.7" r="0.89" fill="#c9c4ff" opacity="0.81"/><circle cx="169.8" cy="319.7" r="0.46" fill="#c9c4ff" opacity="0.42"/><circle cx="286.7" cy="373.7" r="0.36" fill="#8a86c8" opacity="0.82"/><circle cx="4.7" cy="326.0" r="0.39" fill="#8a86c8" opacity="0.20"/><circle cx="152.9" cy="90.6" r="0.63" fill="#8a86c8" opacity="0.79"/><circle cx="148.9" cy="329.9" r="0.35" fill="#8a86c8" opacity="0.51"/><circle cx="17.8" cy="144.9" r="0.72" fill="#8a86c8" opacity="0.36"/><circle cx="64.5" cy="27.0" r="0.35" fill="#8a86c8" opacity="0.77"/><circle cx="143.2" cy="325.3" r="0.35" fill="#8a86c8" opacity="0.77"/><circle cx="1.1" cy="235.8" r="0.49" fill="#8a86c8" opacity="0.28"/><circle cx="192.8" cy="246.1" r="0.35" fill="#8a86c8" opacity="0.39"/><circle cx="172.7" cy="220.6" r="0.47" fill="#8a86c8" opacity="0.92"/><circle cx="483.0" cy="282.1" r="0.78" fill="#c9c4ff" opacity="0.96"/><circle cx="384.9" cy="335.4" r="0.35" fill="#8a86c8" opacity="0.53"/><circle cx="71.4" cy="234.0" r="1.02" fill="#c9c4ff" opacity="0.56"/><circle cx="489.7" cy="136.4" r="0.39" fill="#c9c4ff" opacity="0.67"/><circle cx="10.1" cy="223.2" r="0.42" fill="#8a86c8" opacity="0.72"/><circle cx="73.8" cy="68.3" r="0.37" fill="#c9c4ff" opacity="0.69"/><circle cx="550.7" cy="373.7" r="0.48" fill="#8a86c8" opacity="0.35"/><circle cx="140.4" cy="236.5" r="0.44" fill="#c9c4ff" opacity="0.37"/><circle cx="294.7" cy="1.9" r="0.43" fill="#8a86c8" opacity="0.48"/><circle cx="286.8" cy="35.1" r="0.35" fill="#8a86c8" opacity="0.23"/><circle cx="129.7" cy="86.9" r="0.36" fill="#c9c4ff" opacity="0.54"/><circle cx="212.8" cy="273.9" r="0.50" fill="#8a86c8" opacity="0.77"/><circle cx="286.4" cy="232.4" r="0.43" fill="#8a86c8" opacity="0.90"/><circle cx="325.6" cy="368.2" r="1.15" fill="#c9c4ff" opacity="0.46"/><circle cx="516.0" cy="244.2" r="0.49" fill="#c9c4ff" opacity="0.74"/><circle cx="172.6" cy="349.7" r="1.16" fill="#c9c4ff" opacity="0.24"/><circle cx="470.7" cy="269.0" r="0.38" fill="#8a86c8" opacity="0.84"/><circle cx="356.9" cy="185.3" r="0.35" fill="#8a86c8" opacity="0.15"/><circle cx="171.3" cy="289.4" r="0.35" fill="#8a86c8" opacity="0.79"/><circle cx="320.1" cy="156.7" r="0.36" fill="#c9c4ff" opacity="0.27"/><circle cx="497.1" cy="101.7" r="0.39" fill="#8a86c8" opacity="0.22"/><circle cx="359.0" cy="383.9" r="0.96" fill="#8a86c8" opacity="0.17"/><circle cx="435.2" cy="289.4" r="0.64" fill="#c9c4ff" opacity="0.40"/><circle cx="79.2" cy="150.0" r="1.23" fill="#c9c4ff" opacity="0.60"/><circle cx="534.6" cy="321.7" r="0.46" fill="#c9c4ff" opacity="0.86"/><circle cx="129.7" cy="195.5" r="0.38" fill="#c9c4ff" opacity="0.62"/><circle cx="391.6" cy="33.7" r="0.69" fill="#8a86c8" opacity="0.21"/><circle cx="305.3" cy="322.5" r="0.36" fill="#8a86c8" opacity="0.83"/><circle cx="381.6" cy="323.9" r="1.11" fill="#8a86c8" opacity="0.26"/><circle cx="129.8" cy="268.3" r="0.38" fill="#c9c4ff" opacity="0.52"/><circle cx="62.8" cy="216.4" r="0.49" fill="#c9c4ff" opacity="0.23"/><circle cx="400.6" cy="102.9" r="0.49" fill="#8a86c8" opacity="0.54"/><circle cx="226.3" cy="398.1" r="0.70" fill="#8a86c8" opacity="0.55"/><circle cx="453.4" cy="153.3" r="0.72" fill="#8a86c8" opacity="0.48"/><circle cx="153.4" cy="101.5" r="0.35" fill="#c9c4ff" opacity="0.75"/><circle cx="538.7" cy="132.3" r="0.46" fill="#8a86c8" opacity="0.80"/><circle cx="126.0" cy="248.5" r="0.97" fill="#c9c4ff" opacity="0.84"/><circle cx="493.3" cy="366.0" r="0.41" fill="#c9c4ff" opacity="0.54"/><circle cx="494.6" cy="260.0" r="0.71" fill="#8a86c8" opacity="0.16"/><circle cx="408.5" cy="242.6" r="1.19" fill="#8a86c8" opacity="0.90"/><circle cx="456.7" cy="306.8" r="0.35" fill="#8a86c8" opacity="0.38"/><circle cx="324.9" cy="195.9" r="1.13" fill="#8a86c8" opacity="0.16"/><circle cx="270.0" cy="205.4" r="0.66" fill="#8a86c8" opacity="0.55"/><circle cx="541.4" cy="29.1" r="0.36" fill="#8a86c8" opacity="0.92"/><circle cx="374.7" cy="26.2" r="0.50" fill="#c9c4ff" opacity="0.94"/><text x="72" y="168" font-family="ui-monospace, 'SF Mono', SFMono-Regular, Menlo, Consolas, monospace" font-size="76" font-weight="700" fill="url(#word)" letter-spacing="-2">cometcli</text><text x="74" y="212" font-family="'Avenir Next', 'Segoe UI', Inter, 'Helvetica Neue', Arial, sans-serif" font-size="23" fill="#d9d6ea">An agentic SRE terminal</text><text x="74" y="242" font-family="'Avenir Next', 'Segoe UI', Inter, 'Helvetica Neue', Arial, sans-serif" font-size="23" fill="#d9d6ea">for Cosmos validators.</text><rect x="74" y="282" width="55" height="30" rx="15" fill="none" stroke="#4a4466"/><text x="101" y="302" text-anchor="middle" font-family="ui-monospace, 'SF Mono', SFMono-Regular, Menlo, Consolas, monospace" font-size="15" fill="#a9a3c8">ask</text><rect x="138.8" y="282" width="103" height="30" rx="15" fill="none" stroke="#4a4466"/><text x="190" y="302" text-anchor="middle" font-family="ui-monospace, 'SF Mono', SFMono-Regular, Menlo, Consolas, monospace" font-size="15" fill="#a9a3c8">diagnose</text><rect x="251.60000000000002" y="282" width="55" height="30" rx="15" fill="none" stroke="#4a4466"/><text x="279" y="302" text-anchor="middle" font-family="ui-monospace, 'SF Mono', SFMono-Regular, Menlo, Consolas, monospace" font-size="15" fill="#a9a3c8">fix</text><rect x="316.40000000000003" y="282" width="93" height="30" rx="15" fill="none" stroke="#4a4466"/><text x="363" y="302" text-anchor="middle" font-family="ui-monospace, 'SF Mono', SFMono-Regular, Menlo, Consolas, monospace" font-size="15" fill="#a9a3c8">operate</text><rect x="419.6" y="282" width="74" height="30" rx="15" fill="none" stroke="#4a4466"/><text x="457" y="302" text-anchor="middle" font-family="ui-monospace, 'SF Mono', SFMono-Regular, Menlo, Consolas, monospace" font-size="15" fill="#a9a3c8">watch</text><text x="74" y="352" font-family="ui-monospace, 'SF Mono', SFMono-Regular, Menlo, Consolas, monospace" font-size="15" fill="#6c6688">$ go install …/cometcli/cmd/cometcli@latest</text><g filter="url(#sh)"><rect x="640" y="46" width="580" height="308" rx="12" fill="#1c1c1e" stroke="#34323f"/></g><path d="M640 80 H1220" stroke="#2c2b33"/><circle cx="662" cy="63" r="6" fill="#ff5f57"/><circle cx="682" cy="63" r="6" fill="#febc2e"/><circle cx="702" cy="63" r="6" fill="#28c840"/><text x="930.0" y="68" text-anchor="middle" font-family="ui-monospace, 'SF Mono', SFMono-Regular, Menlo, Consolas, monospace" font-size="12" fill="#6f6f7a">cometcli one val-1</text><text x="664" y="112" font-family="ui-monospace, 'SF Mono', SFMono-Regular, Menlo, Consolas, monospace" font-size="15" fill="#e6e6e6" xml:space="preserve"><tspan fill="#ec8a5c">&gt;</tspan> why is my validator missing blocks?</text><text x="664" y="158" font-family="ui-monospace, 'SF Mono', SFMono-Regular, Menlo, Consolas, monospace" font-size="15" fill="#9ad7ff" xml:space="preserve">● checked 50 signals · matched known case</text><text x="664" y="181" font-family="ui-monospace, 'SF Mono', SFMono-Regular, Menlo, Consolas, monospace" font-size="15" fill="#8e8e99" xml:space="preserve">  peers 2/10 · 1,204 blocks behind · jailed</text><text x="664" y="204" font-family="ui-monospace, 'SF Mono', SFMono-Regular, Menlo, Consolas, monospace" font-size="15" fill="#8e8e99" xml:space="preserve">  cause: stale persistent_peers after upgrade</text><text x="664" y="250" font-family="ui-monospace, 'SF Mono', SFMono-Regular, Menlo, Consolas, monospace" font-size="15" fill="#e6e6e6" xml:space="preserve"><tspan fill="#ec8a5c">✻</tspan> plan: refresh peers → restart → wait for sync → unjail</text><text x="664" y="273" font-family="ui-monospace, 'SF Mono', SFMono-Regular, Menlo, Consolas, monospace" font-size="15" fill="#e6e6e6" xml:space="preserve">  <tspan fill="#d6c9ff">approve</tspan>    <tspan fill="#6f6f7a">deny</tspan></text><text x="664" y="319" font-family="ui-monospace, 'SF Mono', SFMono-Regular, Menlo, Consolas, monospace" font-size="15" fill="#7ee2a8" xml:space="preserve">✓ synced · unjailed · signing again</text><rect x="682" y="257" width="80" height="22" rx="4" fill="#8f68e6" fill-opacity=".18" stroke="#8f68e6" stroke-opacity=".6"/></svg>
